<svg height="15" viewBox="-106 0 469 469.33333" width="15" fill='#242526' xmlns="http://www.w3.org/2000/svg"><path d="m206.246094 0h-156.160156c-27.558594.03125-49.890626 22.363281-49.917969 49.921875v369.492187c.027343 27.558594 22.359375 49.890626 49.917969 49.917969h156.160156c27.558594-.027343 49.890625-22.359375 49.921875-49.917969v-369.492187c-.03125-27.558594-22.363281-49.890625-49.921875-49.921875zm-78.078125 426.667969c-11.785157 0-21.335938-9.550781-21.335938-21.335938 0-11.78125 9.550781-21.332031 21.335938-21.332031 11.78125 0 21.332031 9.550781 21.332031 21.332031 0 11.785157-9.550781 21.335938-21.332031 21.335938zm32-362.667969h-64c-5.890625 0-10.667969-4.777344-10.667969-10.667969s4.777344-10.664062 10.667969-10.664062h64c5.890625 0 10.664062 4.773437 10.664062 10.664062s-4.773437 10.667969-10.664062 10.667969zm0 0"/></svg>