<svg id="_x3C_Layer_x3E_" height="68" viewBox="0 0 32 32" width="68" fill='#FFB400' xmlns="http://www.w3.org/2000/svg"><g id="Code_x2C__coding_x2C__mobile_x2C__development"><g id="XMLID_1809_"><g id="XMLID_1832_"><g><g><path d="m17.5 4h-3c-.276 0-.5-.224-.5-.5s.224-.5.5-.5h3c.276 0 .5.224.5.5s-.224.5-.5.5z"/></g></g></g><g id="XMLID_1831_"><g><g><path d="m21.5 31h-11c-1.379 0-2.5-1.122-2.5-2.5v-17c0-.276.224-.5.5-.5s.5.224.5.5v17c0 .827.673 1.5 1.5 1.5h11c.827 0 1.5-.673 1.5-1.5v-17c0-.276.224-.5.5-.5s.5.224.5.5v17c0 1.378-1.121 2.5-2.5 2.5z"/></g></g></g><g id="XMLID_1830_"><g><g><path d="m23.5 15c-.276 0-.5-.224-.5-.5v-11c0-.827-.673-1.5-1.5-1.5h-11c-.827 0-1.5.673-1.5 1.5v11c0 .276-.224.5-.5.5s-.5-.224-.5-.5v-11c0-1.378 1.121-2.5 2.5-2.5h11c1.379 0 2.5 1.122 2.5 2.5v11c0 .276-.224.5-.5.5z"/></g></g></g><g id="XMLID_1816_"><g id="XMLID_1824_"><g><g><path d="m26.5 6.05c-.276 0-.5-.174-.5-.45v-.1c0-.276.224-.5.5-.5s.5.224.5.5-.224.55-.5.55z"/></g></g></g><g id="XMLID_1818_"><g><g><path d="m26.5 8.05c-.276 0-.5-.174-.5-.45v-.1c0-.276.224-.5.5-.5s.5.224.5.5-.224.55-.5.55z"/></g></g></g><g id="XMLID_1817_"><g><g><path d="m26.5 10.05c-.276 0-.5-.174-.5-.45v-.1c0-.276.224-.5.5-.5s.5.224.5.5-.224.55-.5.55z"/></g></g></g></g><g id="XMLID_1820_"><g id="XMLID_1823_"><g><g><path d="m5.5 22.95c-.276 0-.5-.174-.5-.45v-.1c0-.276.224-.5.5-.5s.5.224.5.5-.224.55-.5.55z"/></g></g></g><g id="XMLID_1822_"><g><g><path d="m5.5 24.95c-.276 0-.5-.174-.5-.45v-.1c0-.276.224-.5.5-.5s.5.224.5.5-.224.55-.5.55z"/></g></g></g><g id="XMLID_1821_"><g><g><path d="m5.5 26.95c-.276 0-.5-.174-.5-.45v-.1c0-.276.224-.5.5-.5s.5.224.5.5-.224.55-.5.55z"/></g></g></g></g><g id="XMLID_1815_"><g><g><path d="m24.841 27c-.035 0-.071-.003-.106-.011-.27-.058-.441-.324-.383-.594l.33-1.53c.04-.188.185-.335.371-.38.472-.114.932-.306 1.367-.571.161-.1.368-.097.529.005l.99.633.613-.618-.633-.982c-.104-.161-.106-.368-.007-.531.265-.435.457-.895.57-1.367.045-.186.191-.33.378-.372l1.14-.253v-.857l-1.139-.253c-.187-.042-.333-.186-.378-.372-.113-.472-.306-.932-.57-1.367-.1-.163-.098-.369.006-.53l.634-.991-.612-.612-.991.634c-.161.103-.367.105-.529.005-.436-.265-.896-.457-1.367-.571-.187-.045-.331-.193-.371-.38l-.246-1.135h-.437c-.276 0-.5-.224-.5-.5s.224-.5.5-.5h.84c.235 0 .439.165.488.395l.267 1.233c.366.111.725.261 1.071.448l1.074-.687c.198-.126.456-.098.623.068l1.181 1.18c.166.166.194.425.067.623l-.687 1.074c.187.347.337.706.448 1.073l1.235.274c.23.051.393.255.393.489v1.66c0 .234-.163.438-.392.488l-1.235.274c-.111.367-.261.726-.448 1.072l.686 1.064c.128.197.101.457-.065.623l-1.181 1.19c-.167.167-.426.195-.624.069l-1.074-.687c-.347.187-.705.337-1.071.448l-.267 1.233c-.051.236-.259.396-.488.396z"/></g></g></g><g id="XMLID_1810_"><g><g><path d="m25.391 22.578c-.16 0-.318-.078-.415-.221-.154-.229-.093-.54.137-.694.555-.374.887-.996.887-1.663 0-1.103-.897-2-2-2-.136 0-.271.014-.4.04-.268.054-.535-.118-.591-.39-.055-.271.119-.535.39-.59.196-.039.398-.06.601-.06 1.654 0 3 1.346 3 3 0 1.001-.497 1.933-1.331 2.493-.085.057-.182.085-.278.085z"/></g></g></g><g id="XMLID_1293_"><g><g><path d="m8 15c-1.654 0-3-1.346-3-3 0-1.005.5-1.938 1.338-2.498.227-.152.539-.092.693.139.153.229.091.54-.139.693-.558.374-.892.996-.892 1.666 0 1.103.897 2 2 2 .134 0 .266-.013.392-.039.265-.055.534.12.589.392.055.271-.121.534-.392.588-.191.039-.387.059-.589.059z"/></g></g></g><g id="XMLID_1811_"><g><g><path d="m8 19h-.84c-.235 0-.439-.165-.488-.395l-.267-1.233c-.366-.111-.725-.261-1.071-.448l-1.074.687c-.199.126-.456.099-.623-.068l-1.181-1.18c-.166-.166-.194-.425-.067-.623l.687-1.074c-.187-.347-.337-.706-.448-1.073l-1.235-.274c-.23-.051-.393-.255-.393-.489v-1.66c0-.234.163-.438.392-.488l1.235-.274c.111-.367.261-.726.448-1.072l-.685-1.065c-.128-.197-.101-.457.065-.623l1.181-1.19c.165-.168.425-.196.624-.069l1.074.687c.347-.187.705-.337 1.071-.448l.267-1.233c.058-.271.329-.443.594-.383.27.058.441.324.383.594l-.33 1.53c-.04.188-.185.335-.371.38-.472.114-.932.306-1.368.571-.162.1-.368.097-.529-.005l-.99-.633-.614.618.633.982c.105.161.107.368.007.531-.265.435-.457.895-.57 1.367-.045.186-.191.33-.378.372l-1.139.252v.857l1.139.253c.187.042.333.186.378.372.113.472.306.932.57 1.367.1.163.098.369-.006.53l-.634.99.612.612.991-.634c.161-.102.368-.104.529-.005.436.265.896.457 1.367.571.187.045.331.193.371.38l.246 1.136h.437c.276 0 .5.224.5.5s-.224.5-.5.5z"/></g></g></g><g id="XMLID_1813_"><g id="XMLID_1890_"><g><g><path d="m15.5 18.5c-.04 0-.08-.005-.121-.015-.269-.067-.431-.338-.364-.606l1-4c.066-.269.333-.431.606-.364.269.067.431.338.364.606l-1 4c-.056.228-.26.379-.485.379z"/></g></g></g><g id="XMLID_1888_"><g><g><path d="m18.5 18.5c-.128 0-.256-.049-.354-.146-.195-.195-.195-.512 0-.707l1.647-1.647-1.646-1.646c-.195-.195-.195-.512 0-.707s.512-.195.707 0l2 2c.195.195.195.512 0 .707l-2 2c-.098.097-.226.146-.354.146z"/></g></g></g><g id="XMLID_1887_"><g><g><path d="m13.5 18.5c-.128 0-.256-.049-.354-.146l-2-2c-.195-.195-.195-.512 0-.707l2-2c.195-.195.512-.195.707 0s.195.512 0 .707l-1.646 1.646 1.646 1.646c.195.195.195.512 0 .707-.097.098-.225.147-.353.147z"/></g></g></g></g></g></g></svg>