<?xml version="1.0"?>
<svg xmlns="http://www.w3.org/2000/svg" id="Layer_1" data-name="Layer 1" width="18" height="18" fill="#1B1B1B" viewBox="0 0 512 512"><path d="M447.247,318.173A126.542,126.542,0,0,0,431.88,281.1l10.693-24.075-28.384-28.383-24.082,10.7a126.569,126.569,0,0,0-37.061-15.364l-9.46-24.576H303.447l-9.459,24.576a126.558,126.558,0,0,0-37.061,15.364l-24.083-10.7-28.383,28.384,10.694,24.08a126.556,126.556,0,0,0-15.365,37.063l-24.573,9.459v40.14l24.57,9.457A126.569,126.569,0,0,0,215.154,414.3l-10.693,24.074,28.383,28.384,24.083-10.7a126.569,126.569,0,0,0,37.061,15.364L303.447,496h40.14l9.457-24.57a126.542,126.542,0,0,0,37.071-15.367l24.075,10.693,28.383-28.384-10.7-24.082a126.569,126.569,0,0,0,15.364-37.061l24.576-9.459V327.63ZM323.517,417.7a70,70,0,1,1,70-70A70,70,0,0,1,323.517,417.7Zm39.52-98.233a10.374,10.374,0,0,1,.045,14.657c-13.809,13.936-27.524,27.964-41.4,41.837a10.389,10.389,0,0,1-14.689,0l-23.015-23.015a10.387,10.387,0,0,1,14.689-14.69l15.648,15.648,34.052-34.391A10.362,10.362,0,0,1,363.037,319.47ZM325.849,66.778V16.772a8.948,8.948,0,0,1,2.609,1.837l50.014,50.014a8.929,8.929,0,0,1,1.837,2.609H330.3A4.463,4.463,0,0,1,325.849,66.778ZM197.237,415.221a142.656,142.656,0,0,1-10.768-25.976l-27.252-10.489V316.645l27.255-10.491q.684-2.256,1.442-4.487h-12.7a8,8,0,0,1,0-16h19.237q1.332-2.77,2.785-5.482l-11.859-26.7,7.868-7.868H175.217a8,8,0,0,1,0-16h34.03L229.3,209.562,256,221.423a142.764,142.764,0,0,1,25.966-10.765l1.254-3.258H175.217a8,8,0,0,1,0-16H289.383l3.079-8h62.11l10.492,27.257a142.672,142.672,0,0,1,16.017,5.924V87.232H330.3A20.469,20.469,0,0,1,309.85,66.778V16H49.091a8.925,8.925,0,0,0-8.908,8.908V448.927a8.925,8.925,0,0,0,8.908,8.908H201.3l-15.918-15.917ZM175.217,97.133H342.28a8,8,0,0,1,0,16H175.217a8,8,0,0,1,0-16Zm0,38.214H342.28a8,8,0,0,1,0,16H175.217a8,8,0,0,1,0-16ZM129.145,329.854a8.016,8.016,0,0,1-8,8H86.984a8.016,8.016,0,0,1-8-8v-34.16a8.016,8.016,0,0,1,8-8h34.161a8.016,8.016,0,0,1,8,8Zm0-94.266a8.016,8.016,0,0,1-8,8H86.984a8.016,8.016,0,0,1-8-8V201.427a8.016,8.016,0,0,1,8-8h34.161a8.016,8.016,0,0,1,8,8Zm0-94.267a8.016,8.016,0,0,1-8,8H86.984a8.016,8.016,0,0,1-8-8V107.16a8.016,8.016,0,0,1,8-8h34.161a8.016,8.016,0,0,1,8,8Z"/></svg>
